@startuml

skinparam groupInheritance 2
skinparam ClassFontSize 18

interface java.util.Collection<E>
interface java.util.List<E>
interface java.util.Queue<E>
interface java.util.Deque<E>
class java.util.LinkedList<E>

java.util.Collection <|.. java.util.Queue
java.util.Collection <|.. java.util.List
java.util.Queue <|.. java.util.Deque
java.util.Deque <|.. java.util.LinkedList
java.util.List <|.. java.util.LinkedList

@enduml